<mxfile host="app.diagrams.net" modified="2023-03-22T22:40:56.322Z" agent="5.0 (Windows NT 10.0; Win64; x64) AppleWebKit/537.36 (KHTML, like Gecko) Chrome/111.0.0.0 Safari/537.36" etag="wWHCSTAtxId0COnOlpYS" version="21.0.10" type="github">
  <diagram name="Página-1" id="3p_g_7PtTpxhv0XlUS6z">
    <mxGraphModel dx="496" dy="506" grid="1" gridSize="10" guides="1" tooltips="1" connect="1" arrows="1" fold="1" page="1" pageScale="1" pageWidth="1169" pageHeight="827" math="0" shadow="0">
      <root>
        <mxCell id="0" />
        <mxCell id="1" parent="0" />
        <mxCell id="7GD1HpZ-PUaCYe6f2KZS-1" value="Empresa Servicios Web" style="swimlane;childLayout=stackLayout;resizeParent=1;resizeParentMax=0;horizontal=1;startSize=20;horizontalStack=0;html=1;" vertex="1" parent="1">
          <mxGeometry x="60" y="130" width="990" height="1110" as="geometry" />
        </mxCell>
        <mxCell id="7GD1HpZ-PUaCYe6f2KZS-2" value="Sistema Producción" style="swimlane;startSize=20;horizontal=0;html=1;" vertex="1" parent="7GD1HpZ-PUaCYe6f2KZS-1">
          <mxGeometry y="20" width="990" height="190" as="geometry" />
        </mxCell>
        <mxCell id="7GD1HpZ-PUaCYe6f2KZS-11" value="" style="edgeStyle=orthogonalEdgeStyle;rounded=0;orthogonalLoop=1;jettySize=auto;html=1;" edge="1" parent="7GD1HpZ-PUaCYe6f2KZS-2" source="7GD1HpZ-PUaCYe6f2KZS-9" target="7GD1HpZ-PUaCYe6f2KZS-10">
          <mxGeometry relative="1" as="geometry" />
        </mxCell>
        <mxCell id="7GD1HpZ-PUaCYe6f2KZS-9" value="" style="points=[[0.145,0.145,0],[0.5,0,0],[0.855,0.145,0],[1,0.5,0],[0.855,0.855,0],[0.5,1,0],[0.145,0.855,0],[0,0.5,0]];shape=mxgraph.bpmn.event;html=1;verticalLabelPosition=bottom;labelBackgroundColor=#ffffff;verticalAlign=top;align=center;perimeter=ellipsePerimeter;outlineConnect=0;aspect=fixed;outline=standard;symbol=general;" vertex="1" parent="7GD1HpZ-PUaCYe6f2KZS-2">
          <mxGeometry x="50" y="100" width="20" height="20" as="geometry" />
        </mxCell>
        <mxCell id="7GD1HpZ-PUaCYe6f2KZS-13" value="" style="edgeStyle=orthogonalEdgeStyle;rounded=0;orthogonalLoop=1;jettySize=auto;html=1;" edge="1" parent="7GD1HpZ-PUaCYe6f2KZS-2" source="7GD1HpZ-PUaCYe6f2KZS-10" target="7GD1HpZ-PUaCYe6f2KZS-12">
          <mxGeometry relative="1" as="geometry" />
        </mxCell>
        <mxCell id="7GD1HpZ-PUaCYe6f2KZS-10" value="&lt;font style=&quot;font-size: 12px;&quot;&gt;Detectar &lt;br&gt;Intrusión&lt;/font&gt;" style="rounded=1;whiteSpace=wrap;html=1;verticalAlign=top;labelBackgroundColor=#ffffff;align=center;" vertex="1" parent="7GD1HpZ-PUaCYe6f2KZS-2">
          <mxGeometry x="100" y="90" width="120" height="40" as="geometry" />
        </mxCell>
        <mxCell id="7GD1HpZ-PUaCYe6f2KZS-12" value="" style="points=[[0.145,0.145,0],[0.5,0,0],[0.855,0.145,0],[1,0.5,0],[0.855,0.855,0],[0.5,1,0],[0.145,0.855,0],[0,0.5,0]];shape=mxgraph.bpmn.event;html=1;verticalLabelPosition=bottom;labelBackgroundColor=#ffffff;verticalAlign=top;align=center;perimeter=ellipsePerimeter;outlineConnect=0;aspect=fixed;outline=throwing;symbol=message;" vertex="1" parent="7GD1HpZ-PUaCYe6f2KZS-2">
          <mxGeometry x="260" y="97.5" width="25" height="25" as="geometry" />
        </mxCell>
        <mxCell id="7GD1HpZ-PUaCYe6f2KZS-14" value="&lt;font style=&quot;font-size: 10px;&quot;&gt;Enviar Intrusión&lt;br&gt;&amp;nbsp;Dep. Análisis y Seg&lt;/font&gt;" style="text;html=1;align=center;verticalAlign=middle;resizable=0;points=[];autosize=1;strokeColor=none;fillColor=none;" vertex="1" parent="7GD1HpZ-PUaCYe6f2KZS-2">
          <mxGeometry x="220" y="57.5" width="110" height="40" as="geometry" />
        </mxCell>
        <mxCell id="7GD1HpZ-PUaCYe6f2KZS-3" value="Dep. Análisis y Seguridad" style="swimlane;startSize=20;horizontal=0;html=1;" vertex="1" parent="7GD1HpZ-PUaCYe6f2KZS-1">
          <mxGeometry y="210" width="990" height="220" as="geometry" />
        </mxCell>
        <mxCell id="7GD1HpZ-PUaCYe6f2KZS-20" style="edgeStyle=orthogonalEdgeStyle;rounded=0;orthogonalLoop=1;jettySize=auto;html=1;entryX=0;entryY=0.5;entryDx=0;entryDy=0;entryPerimeter=0;" edge="1" parent="7GD1HpZ-PUaCYe6f2KZS-3" source="7GD1HpZ-PUaCYe6f2KZS-15" target="7GD1HpZ-PUaCYe6f2KZS-19">
          <mxGeometry relative="1" as="geometry" />
        </mxCell>
        <mxCell id="7GD1HpZ-PUaCYe6f2KZS-15" value="" style="points=[[0.145,0.145,0],[0.5,0,0],[0.855,0.145,0],[1,0.5,0],[0.855,0.855,0],[0.5,1,0],[0.145,0.855,0],[0,0.5,0]];shape=mxgraph.bpmn.event;html=1;verticalLabelPosition=bottom;labelBackgroundColor=#ffffff;verticalAlign=top;align=center;perimeter=ellipsePerimeter;outlineConnect=0;aspect=fixed;outline=standard;symbol=message;" vertex="1" parent="7GD1HpZ-PUaCYe6f2KZS-3">
          <mxGeometry x="42.5" y="100" width="35" height="35" as="geometry" />
        </mxCell>
        <mxCell id="7GD1HpZ-PUaCYe6f2KZS-18" value="&lt;font style=&quot;font-size: 8px;&quot;&gt;Recibe que se &lt;br&gt;ha detectado intrusión&lt;/font&gt;" style="text;html=1;align=center;verticalAlign=middle;resizable=0;points=[];autosize=1;strokeColor=none;fillColor=none;" vertex="1" parent="7GD1HpZ-PUaCYe6f2KZS-3">
          <mxGeometry x="10" y="135" width="100" height="40" as="geometry" />
        </mxCell>
        <mxCell id="7GD1HpZ-PUaCYe6f2KZS-22" value="" style="edgeStyle=orthogonalEdgeStyle;rounded=0;orthogonalLoop=1;jettySize=auto;html=1;" edge="1" parent="7GD1HpZ-PUaCYe6f2KZS-3" source="7GD1HpZ-PUaCYe6f2KZS-19" target="7GD1HpZ-PUaCYe6f2KZS-21">
          <mxGeometry relative="1" as="geometry" />
        </mxCell>
        <mxCell id="7GD1HpZ-PUaCYe6f2KZS-19" value="Realiza análisis de la intrusión" style="points=[[0.25,0,0],[0.5,0,0],[0.75,0,0],[1,0.25,0],[1,0.5,0],[1,0.75,0],[0.75,1,0],[0.5,1,0],[0.25,1,0],[0,0.75,0],[0,0.5,0],[0,0.25,0]];shape=mxgraph.bpmn.task;whiteSpace=wrap;rectStyle=rounded;size=10;html=1;container=1;expand=0;collapsible=0;taskMarker=abstract;" vertex="1" parent="7GD1HpZ-PUaCYe6f2KZS-3">
          <mxGeometry x="120" y="101" width="110" height="34" as="geometry" />
        </mxCell>
        <mxCell id="7GD1HpZ-PUaCYe6f2KZS-24" style="edgeStyle=orthogonalEdgeStyle;rounded=0;orthogonalLoop=1;jettySize=auto;html=1;" edge="1" parent="7GD1HpZ-PUaCYe6f2KZS-3" source="7GD1HpZ-PUaCYe6f2KZS-21" target="7GD1HpZ-PUaCYe6f2KZS-23">
          <mxGeometry relative="1" as="geometry" />
        </mxCell>
        <mxCell id="7GD1HpZ-PUaCYe6f2KZS-21" value="Clasifica intrusión" style="points=[[0.25,0,0],[0.5,0,0],[0.75,0,0],[1,0.25,0],[1,0.5,0],[1,0.75,0],[0.75,1,0],[0.5,1,0],[0.25,1,0],[0,0.75,0],[0,0.5,0],[0,0.25,0]];shape=mxgraph.bpmn.task;whiteSpace=wrap;rectStyle=rounded;size=10;html=1;container=1;expand=0;collapsible=0;taskMarker=abstract;" vertex="1" parent="7GD1HpZ-PUaCYe6f2KZS-3">
          <mxGeometry x="260" y="101" width="110" height="34" as="geometry" />
        </mxCell>
        <mxCell id="7GD1HpZ-PUaCYe6f2KZS-27" style="edgeStyle=orthogonalEdgeStyle;rounded=0;orthogonalLoop=1;jettySize=auto;html=1;entryX=0;entryY=0.5;entryDx=0;entryDy=0;entryPerimeter=0;" edge="1" parent="7GD1HpZ-PUaCYe6f2KZS-3" source="7GD1HpZ-PUaCYe6f2KZS-23" target="7GD1HpZ-PUaCYe6f2KZS-26">
          <mxGeometry relative="1" as="geometry" />
        </mxCell>
        <mxCell id="7GD1HpZ-PUaCYe6f2KZS-41" style="edgeStyle=orthogonalEdgeStyle;rounded=0;orthogonalLoop=1;jettySize=auto;html=1;entryX=0;entryY=0.5;entryDx=0;entryDy=0;entryPerimeter=0;" edge="1" parent="7GD1HpZ-PUaCYe6f2KZS-3" source="7GD1HpZ-PUaCYe6f2KZS-23" target="7GD1HpZ-PUaCYe6f2KZS-40">
          <mxGeometry relative="1" as="geometry">
            <Array as="points">
              <mxPoint x="470" y="118" />
              <mxPoint x="470" y="147" />
            </Array>
          </mxGeometry>
        </mxCell>
        <mxCell id="7GD1HpZ-PUaCYe6f2KZS-23" value="" style="points=[[0.25,0.25,0],[0.5,0,0],[0.75,0.25,0],[1,0.5,0],[0.75,0.75,0],[0.5,1,0],[0.25,0.75,0],[0,0.5,0]];shape=mxgraph.bpmn.gateway2;html=1;verticalLabelPosition=bottom;labelBackgroundColor=#ffffff;verticalAlign=top;align=center;perimeter=rhombusPerimeter;outlineConnect=0;outline=none;symbol=none;gwType=exclusive;" vertex="1" parent="7GD1HpZ-PUaCYe6f2KZS-3">
          <mxGeometry x="400" y="93" width="50" height="50" as="geometry" />
        </mxCell>
        <mxCell id="7GD1HpZ-PUaCYe6f2KZS-25" value="¿Leve?" style="text;html=1;align=center;verticalAlign=middle;resizable=0;points=[];autosize=1;strokeColor=none;fillColor=none;" vertex="1" parent="7GD1HpZ-PUaCYe6f2KZS-3">
          <mxGeometry x="390" y="140" width="60" height="30" as="geometry" />
        </mxCell>
        <mxCell id="7GD1HpZ-PUaCYe6f2KZS-33" style="edgeStyle=orthogonalEdgeStyle;rounded=0;orthogonalLoop=1;jettySize=auto;html=1;entryX=0;entryY=0.5;entryDx=0;entryDy=0;entryPerimeter=0;" edge="1" parent="7GD1HpZ-PUaCYe6f2KZS-3" source="7GD1HpZ-PUaCYe6f2KZS-26" target="7GD1HpZ-PUaCYe6f2KZS-32">
          <mxGeometry relative="1" as="geometry" />
        </mxCell>
        <mxCell id="7GD1HpZ-PUaCYe6f2KZS-26" value="Actualizar BBDD" style="points=[[0.25,0,0],[0.5,0,0],[0.75,0,0],[1,0.25,0],[1,0.5,0],[1,0.75,0],[0.75,1,0],[0.5,1,0],[0.25,1,0],[0,0.75,0],[0,0.5,0],[0,0.25,0]];shape=mxgraph.bpmn.task;whiteSpace=wrap;rectStyle=rounded;size=10;html=1;container=1;expand=0;collapsible=0;taskMarker=abstract;" vertex="1" parent="7GD1HpZ-PUaCYe6f2KZS-3">
          <mxGeometry x="490" y="61" width="110" height="34" as="geometry" />
        </mxCell>
        <mxCell id="7GD1HpZ-PUaCYe6f2KZS-36" style="edgeStyle=orthogonalEdgeStyle;rounded=0;orthogonalLoop=1;jettySize=auto;html=1;entryX=0;entryY=0.5;entryDx=0;entryDy=0;entryPerimeter=0;" edge="1" parent="7GD1HpZ-PUaCYe6f2KZS-3" source="7GD1HpZ-PUaCYe6f2KZS-32" target="7GD1HpZ-PUaCYe6f2KZS-35">
          <mxGeometry relative="1" as="geometry" />
        </mxCell>
        <mxCell id="7GD1HpZ-PUaCYe6f2KZS-32" value="" style="points=[[0.25,0.25,0],[0.5,0,0],[0.75,0.25,0],[1,0.5,0],[0.75,0.75,0],[0.5,1,0],[0.25,0.75,0],[0,0.5,0]];shape=mxgraph.bpmn.gateway2;html=1;verticalLabelPosition=bottom;labelBackgroundColor=#ffffff;verticalAlign=top;align=center;perimeter=rhombusPerimeter;outlineConnect=0;outline=none;symbol=none;gwType=exclusive;" vertex="1" parent="7GD1HpZ-PUaCYe6f2KZS-3">
          <mxGeometry x="640" y="92.5" width="50" height="50" as="geometry" />
        </mxCell>
        <mxCell id="7GD1HpZ-PUaCYe6f2KZS-35" value="" style="points=[[0.145,0.145,0],[0.5,0,0],[0.855,0.145,0],[1,0.5,0],[0.855,0.855,0],[0.5,1,0],[0.145,0.855,0],[0,0.5,0]];shape=mxgraph.bpmn.event;html=1;verticalLabelPosition=bottom;labelBackgroundColor=#ffffff;verticalAlign=top;align=center;perimeter=ellipsePerimeter;outlineConnect=0;aspect=fixed;outline=end;symbol=terminate2;" vertex="1" parent="7GD1HpZ-PUaCYe6f2KZS-3">
          <mxGeometry x="770" y="100" width="35" height="35" as="geometry" />
        </mxCell>
        <mxCell id="7GD1HpZ-PUaCYe6f2KZS-31" value="&lt;font style=&quot;font-size: 9px;&quot;&gt;Contactar Dep. IT&amp;nbsp;&lt;/font&gt;" style="text;html=1;align=center;verticalAlign=middle;resizable=0;points=[];autosize=1;strokeColor=none;fillColor=none;" vertex="1" parent="7GD1HpZ-PUaCYe6f2KZS-3">
          <mxGeometry x="550" y="160" width="100" height="30" as="geometry" />
        </mxCell>
        <mxCell id="7GD1HpZ-PUaCYe6f2KZS-42" style="edgeStyle=orthogonalEdgeStyle;rounded=0;orthogonalLoop=1;jettySize=auto;html=1;" edge="1" parent="7GD1HpZ-PUaCYe6f2KZS-3" source="7GD1HpZ-PUaCYe6f2KZS-40" target="7GD1HpZ-PUaCYe6f2KZS-32">
          <mxGeometry relative="1" as="geometry">
            <Array as="points">
              <mxPoint x="620" y="147" />
              <mxPoint x="620" y="117" />
            </Array>
          </mxGeometry>
        </mxCell>
        <mxCell id="7GD1HpZ-PUaCYe6f2KZS-40" value="" style="points=[[0.145,0.145,0],[0.5,0,0],[0.855,0.145,0],[1,0.5,0],[0.855,0.855,0],[0.5,1,0],[0.145,0.855,0],[0,0.5,0]];shape=mxgraph.bpmn.event;html=1;verticalLabelPosition=bottom;labelBackgroundColor=#ffffff;verticalAlign=top;align=center;perimeter=ellipsePerimeter;outlineConnect=0;aspect=fixed;outline=throwing;symbol=message;" vertex="1" parent="7GD1HpZ-PUaCYe6f2KZS-3">
          <mxGeometry x="532.5" y="135" width="25" height="25" as="geometry" />
        </mxCell>
        <mxCell id="7GD1HpZ-PUaCYe6f2KZS-48" value="Leve" style="text;html=1;align=center;verticalAlign=middle;resizable=0;points=[];autosize=1;strokeColor=none;fillColor=none;" vertex="1" parent="7GD1HpZ-PUaCYe6f2KZS-3">
          <mxGeometry x="450" y="44" width="50" height="30" as="geometry" />
        </mxCell>
        <mxCell id="7GD1HpZ-PUaCYe6f2KZS-4" value="Dep. IT" style="swimlane;startSize=20;horizontal=0;html=1;" vertex="1" parent="7GD1HpZ-PUaCYe6f2KZS-1">
          <mxGeometry y="430" width="990" height="210" as="geometry" />
        </mxCell>
        <mxCell id="7GD1HpZ-PUaCYe6f2KZS-45" style="edgeStyle=orthogonalEdgeStyle;rounded=0;orthogonalLoop=1;jettySize=auto;html=1;entryX=0;entryY=0.5;entryDx=0;entryDy=0;entryPerimeter=0;" edge="1" parent="7GD1HpZ-PUaCYe6f2KZS-4" source="7GD1HpZ-PUaCYe6f2KZS-37" target="7GD1HpZ-PUaCYe6f2KZS-44">
          <mxGeometry relative="1" as="geometry" />
        </mxCell>
        <mxCell id="7GD1HpZ-PUaCYe6f2KZS-37" value="" style="points=[[0.145,0.145,0],[0.5,0,0],[0.855,0.145,0],[1,0.5,0],[0.855,0.855,0],[0.5,1,0],[0.145,0.855,0],[0,0.5,0]];shape=mxgraph.bpmn.event;html=1;verticalLabelPosition=bottom;labelBackgroundColor=#ffffff;verticalAlign=top;align=center;perimeter=ellipsePerimeter;outlineConnect=0;aspect=fixed;outline=standard;symbol=message;" vertex="1" parent="7GD1HpZ-PUaCYe6f2KZS-4">
          <mxGeometry x="42.5" y="107.5" width="35" height="35" as="geometry" />
        </mxCell>
        <mxCell id="7GD1HpZ-PUaCYe6f2KZS-47" style="edgeStyle=orthogonalEdgeStyle;rounded=0;orthogonalLoop=1;jettySize=auto;html=1;entryX=0;entryY=0.5;entryDx=0;entryDy=0;entryPerimeter=0;" edge="1" parent="7GD1HpZ-PUaCYe6f2KZS-4" source="7GD1HpZ-PUaCYe6f2KZS-44" target="7GD1HpZ-PUaCYe6f2KZS-46">
          <mxGeometry relative="1" as="geometry" />
        </mxCell>
        <mxCell id="7GD1HpZ-PUaCYe6f2KZS-44" value="Realizar inventariado" style="points=[[0.25,0,0],[0.5,0,0],[0.75,0,0],[1,0.25,0],[1,0.5,0],[1,0.75,0],[0.75,1,0],[0.5,1,0],[0.25,1,0],[0,0.75,0],[0,0.5,0],[0,0.25,0]];shape=mxgraph.bpmn.task;whiteSpace=wrap;rectStyle=rounded;size=10;html=1;container=1;expand=0;collapsible=0;taskMarker=abstract;" vertex="1" parent="7GD1HpZ-PUaCYe6f2KZS-4">
          <mxGeometry x="110" y="107.5" width="120" height="35" as="geometry" />
        </mxCell>
        <mxCell id="7GD1HpZ-PUaCYe6f2KZS-53" style="edgeStyle=orthogonalEdgeStyle;rounded=0;orthogonalLoop=1;jettySize=auto;html=1;entryX=0;entryY=0.5;entryDx=0;entryDy=0;entryPerimeter=0;" edge="1" parent="7GD1HpZ-PUaCYe6f2KZS-4" source="7GD1HpZ-PUaCYe6f2KZS-46" target="7GD1HpZ-PUaCYe6f2KZS-51">
          <mxGeometry relative="1" as="geometry" />
        </mxCell>
        <mxCell id="7GD1HpZ-PUaCYe6f2KZS-46" value="" style="points=[[0.25,0.25,0],[0.5,0,0],[0.75,0.25,0],[1,0.5,0],[0.75,0.75,0],[0.5,1,0],[0.25,0.75,0],[0,0.5,0]];shape=mxgraph.bpmn.gateway2;html=1;verticalLabelPosition=bottom;labelBackgroundColor=#ffffff;verticalAlign=top;align=center;perimeter=rhombusPerimeter;outlineConnect=0;outline=none;symbol=none;gwType=exclusive;" vertex="1" parent="7GD1HpZ-PUaCYe6f2KZS-4">
          <mxGeometry x="280" y="100" width="50" height="50" as="geometry" />
        </mxCell>
        <mxCell id="7GD1HpZ-PUaCYe6f2KZS-63" style="edgeStyle=orthogonalEdgeStyle;rounded=0;orthogonalLoop=1;jettySize=auto;html=1;" edge="1" parent="7GD1HpZ-PUaCYe6f2KZS-4" source="7GD1HpZ-PUaCYe6f2KZS-51" target="7GD1HpZ-PUaCYe6f2KZS-62">
          <mxGeometry relative="1" as="geometry" />
        </mxCell>
        <mxCell id="7GD1HpZ-PUaCYe6f2KZS-51" value="" style="points=[[0.145,0.145,0],[0.5,0,0],[0.855,0.145,0],[1,0.5,0],[0.855,0.855,0],[0.5,1,0],[0.145,0.855,0],[0,0.5,0]];shape=mxgraph.bpmn.event;html=1;verticalLabelPosition=bottom;labelBackgroundColor=#ffffff;verticalAlign=top;align=center;perimeter=ellipsePerimeter;outlineConnect=0;aspect=fixed;outline=throwing;symbol=message;" vertex="1" parent="7GD1HpZ-PUaCYe6f2KZS-4">
          <mxGeometry x="390" y="142.5" width="25" height="25" as="geometry" />
        </mxCell>
        <mxCell id="7GD1HpZ-PUaCYe6f2KZS-52" value="¿Grave?&amp;nbsp;&lt;br&gt;¿Muy grave?" style="text;html=1;align=center;verticalAlign=middle;resizable=0;points=[];autosize=1;strokeColor=none;fillColor=none;" vertex="1" parent="7GD1HpZ-PUaCYe6f2KZS-4">
          <mxGeometry x="260" y="60" width="90" height="40" as="geometry" />
        </mxCell>
        <mxCell id="7GD1HpZ-PUaCYe6f2KZS-54" value="Muy grave" style="text;html=1;align=center;verticalAlign=middle;resizable=0;points=[];autosize=1;strokeColor=none;fillColor=none;" vertex="1" parent="7GD1HpZ-PUaCYe6f2KZS-4">
          <mxGeometry x="270" y="142.5" width="80" height="30" as="geometry" />
        </mxCell>
        <mxCell id="7GD1HpZ-PUaCYe6f2KZS-55" value="&lt;font style=&quot;font-size: 8px;&quot;&gt;Mensaje a través del formulario&lt;/font&gt;" style="text;html=1;align=center;verticalAlign=middle;resizable=0;points=[];autosize=1;strokeColor=none;fillColor=none;" vertex="1" parent="7GD1HpZ-PUaCYe6f2KZS-4">
          <mxGeometry x="350" y="165" width="140" height="30" as="geometry" />
        </mxCell>
        <mxCell id="7GD1HpZ-PUaCYe6f2KZS-57" value="" style="dashed=1;dashPattern=8 4;endArrow=blockThin;endFill=1;startArrow=oval;startFill=0;endSize=6;startSize=4;html=1;rounded=0;entryX=0.5;entryY=0;entryDx=0;entryDy=0;entryPerimeter=0;exitX=0.5;exitY=1;exitDx=0;exitDy=0;exitPerimeter=0;" edge="1" parent="7GD1HpZ-PUaCYe6f2KZS-4" target="7GD1HpZ-PUaCYe6f2KZS-56">
          <mxGeometry width="160" relative="1" as="geometry">
            <mxPoint x="405" y="167.5" as="sourcePoint" />
            <mxPoint x="-80" y="335.5" as="targetPoint" />
            <Array as="points">
              <mxPoint x="405" y="204.5" />
              <mxPoint x="310" y="204.5" />
              <mxPoint x="60" y="205" />
            </Array>
          </mxGeometry>
        </mxCell>
        <mxCell id="7GD1HpZ-PUaCYe6f2KZS-78" style="edgeStyle=orthogonalEdgeStyle;rounded=0;orthogonalLoop=1;jettySize=auto;html=1;entryX=0;entryY=0.5;entryDx=0;entryDy=0;entryPerimeter=0;" edge="1" parent="7GD1HpZ-PUaCYe6f2KZS-4" source="7GD1HpZ-PUaCYe6f2KZS-62" target="7GD1HpZ-PUaCYe6f2KZS-76">
          <mxGeometry relative="1" as="geometry" />
        </mxCell>
        <mxCell id="7GD1HpZ-PUaCYe6f2KZS-91" style="edgeStyle=orthogonalEdgeStyle;rounded=0;orthogonalLoop=1;jettySize=auto;html=1;entryX=0;entryY=0.5;entryDx=0;entryDy=0;entryPerimeter=0;" edge="1" parent="7GD1HpZ-PUaCYe6f2KZS-4" source="7GD1HpZ-PUaCYe6f2KZS-62" target="7GD1HpZ-PUaCYe6f2KZS-80">
          <mxGeometry relative="1" as="geometry" />
        </mxCell>
        <mxCell id="7GD1HpZ-PUaCYe6f2KZS-62" value="" style="points=[[0.25,0.25,0],[0.5,0,0],[0.75,0.25,0],[1,0.5,0],[0.75,0.75,0],[0.5,1,0],[0.25,0.75,0],[0,0.5,0]];shape=mxgraph.bpmn.gateway2;html=1;verticalLabelPosition=bottom;labelBackgroundColor=#ffffff;verticalAlign=top;align=center;perimeter=rhombusPerimeter;outlineConnect=0;outline=none;symbol=none;gwType=exclusive;" vertex="1" parent="7GD1HpZ-PUaCYe6f2KZS-4">
          <mxGeometry x="490" y="130" width="50" height="50" as="geometry" />
        </mxCell>
        <mxCell id="7GD1HpZ-PUaCYe6f2KZS-81" style="edgeStyle=orthogonalEdgeStyle;rounded=0;orthogonalLoop=1;jettySize=auto;html=1;entryX=0;entryY=0.5;entryDx=0;entryDy=0;entryPerimeter=0;" edge="1" parent="7GD1HpZ-PUaCYe6f2KZS-4" source="7GD1HpZ-PUaCYe6f2KZS-76" target="7GD1HpZ-PUaCYe6f2KZS-80">
          <mxGeometry relative="1" as="geometry" />
        </mxCell>
        <mxCell id="7GD1HpZ-PUaCYe6f2KZS-76" value="" style="points=[[0.145,0.145,0],[0.5,0,0],[0.855,0.145,0],[1,0.5,0],[0.855,0.855,0],[0.5,1,0],[0.145,0.855,0],[0,0.5,0]];shape=mxgraph.bpmn.event;html=1;verticalLabelPosition=bottom;labelBackgroundColor=#ffffff;verticalAlign=top;align=center;perimeter=ellipsePerimeter;outlineConnect=0;aspect=fixed;outline=catching;symbol=message;" vertex="1" parent="7GD1HpZ-PUaCYe6f2KZS-4">
          <mxGeometry x="620" y="90" width="30" height="30" as="geometry" />
        </mxCell>
        <mxCell id="7GD1HpZ-PUaCYe6f2KZS-64" value="¿Genera info.adicional?" style="text;html=1;align=center;verticalAlign=middle;resizable=0;points=[];autosize=1;strokeColor=none;fillColor=none;" vertex="1" parent="7GD1HpZ-PUaCYe6f2KZS-4">
          <mxGeometry x="440" y="180" width="150" height="30" as="geometry" />
        </mxCell>
        <mxCell id="7GD1HpZ-PUaCYe6f2KZS-80" value="" style="points=[[0.25,0.25,0],[0.5,0,0],[0.75,0.25,0],[1,0.5,0],[0.75,0.75,0],[0.5,1,0],[0.25,0.75,0],[0,0.5,0]];shape=mxgraph.bpmn.gateway2;html=1;verticalLabelPosition=bottom;labelBackgroundColor=#ffffff;verticalAlign=top;align=center;perimeter=rhombusPerimeter;outlineConnect=0;outline=none;symbol=none;gwType=exclusive;" vertex="1" parent="7GD1HpZ-PUaCYe6f2KZS-4">
          <mxGeometry x="720" y="130" width="50" height="50" as="geometry" />
        </mxCell>
        <mxCell id="7GD1HpZ-PUaCYe6f2KZS-83" value="Sí" style="text;html=1;align=center;verticalAlign=middle;resizable=0;points=[];autosize=1;strokeColor=none;fillColor=none;fontStyle=1" vertex="1" parent="7GD1HpZ-PUaCYe6f2KZS-4">
          <mxGeometry x="550" y="77.5" width="30" height="30" as="geometry" />
        </mxCell>
        <mxCell id="7GD1HpZ-PUaCYe6f2KZS-84" value="&lt;b&gt;No&lt;/b&gt;" style="text;html=1;align=center;verticalAlign=middle;resizable=0;points=[];autosize=1;strokeColor=none;fillColor=none;" vertex="1" parent="7GD1HpZ-PUaCYe6f2KZS-4">
          <mxGeometry x="540" y="160" width="40" height="30" as="geometry" />
        </mxCell>
        <mxCell id="7GD1HpZ-PUaCYe6f2KZS-88" value="" style="points=[[0.145,0.145,0],[0.5,0,0],[0.855,0.145,0],[1,0.5,0],[0.855,0.855,0],[0.5,1,0],[0.145,0.855,0],[0,0.5,0]];shape=mxgraph.bpmn.event;html=1;verticalLabelPosition=bottom;labelBackgroundColor=#ffffff;verticalAlign=top;align=center;perimeter=ellipsePerimeter;outlineConnect=0;aspect=fixed;outline=throwing;symbol=message;" vertex="1" parent="7GD1HpZ-PUaCYe6f2KZS-4">
          <mxGeometry x="830" y="147.5" width="25" height="25" as="geometry" />
        </mxCell>
        <mxCell id="7GD1HpZ-PUaCYe6f2KZS-92" value="Información adicional" style="text;html=1;align=center;verticalAlign=middle;resizable=0;points=[];autosize=1;strokeColor=none;fillColor=none;" vertex="1" parent="7GD1HpZ-PUaCYe6f2KZS-4">
          <mxGeometry x="565" y="60" width="140" height="30" as="geometry" />
        </mxCell>
        <mxCell id="7GD1HpZ-PUaCYe6f2KZS-7" value="INCIBE-CERT" style="swimlane;startSize=20;horizontal=0;html=1;" vertex="1" parent="7GD1HpZ-PUaCYe6f2KZS-1">
          <mxGeometry y="640" width="990" height="220" as="geometry" />
        </mxCell>
        <mxCell id="7GD1HpZ-PUaCYe6f2KZS-59" style="edgeStyle=orthogonalEdgeStyle;rounded=0;orthogonalLoop=1;jettySize=auto;html=1;entryX=0;entryY=0.5;entryDx=0;entryDy=0;entryPerimeter=0;" edge="1" parent="7GD1HpZ-PUaCYe6f2KZS-7" source="7GD1HpZ-PUaCYe6f2KZS-56" target="7GD1HpZ-PUaCYe6f2KZS-58">
          <mxGeometry relative="1" as="geometry" />
        </mxCell>
        <mxCell id="7GD1HpZ-PUaCYe6f2KZS-56" value="" style="points=[[0.145,0.145,0],[0.5,0,0],[0.855,0.145,0],[1,0.5,0],[0.855,0.855,0],[0.5,1,0],[0.145,0.855,0],[0,0.5,0]];shape=mxgraph.bpmn.event;html=1;verticalLabelPosition=bottom;labelBackgroundColor=#ffffff;verticalAlign=top;align=center;perimeter=ellipsePerimeter;outlineConnect=0;aspect=fixed;outline=standard;symbol=message;" vertex="1" parent="7GD1HpZ-PUaCYe6f2KZS-7">
          <mxGeometry x="42.5" y="110" width="35" height="35" as="geometry" />
        </mxCell>
        <mxCell id="7GD1HpZ-PUaCYe6f2KZS-67" style="edgeStyle=orthogonalEdgeStyle;rounded=0;orthogonalLoop=1;jettySize=auto;html=1;entryX=0;entryY=0.5;entryDx=0;entryDy=0;entryPerimeter=0;" edge="1" parent="7GD1HpZ-PUaCYe6f2KZS-7" source="7GD1HpZ-PUaCYe6f2KZS-58" target="7GD1HpZ-PUaCYe6f2KZS-65">
          <mxGeometry relative="1" as="geometry" />
        </mxCell>
        <mxCell id="7GD1HpZ-PUaCYe6f2KZS-90" style="edgeStyle=orthogonalEdgeStyle;rounded=0;orthogonalLoop=1;jettySize=auto;html=1;" edge="1" parent="7GD1HpZ-PUaCYe6f2KZS-7" source="7GD1HpZ-PUaCYe6f2KZS-58">
          <mxGeometry relative="1" as="geometry">
            <mxPoint x="390" y="127.5" as="targetPoint" />
          </mxGeometry>
        </mxCell>
        <mxCell id="7GD1HpZ-PUaCYe6f2KZS-58" value="" style="points=[[0.25,0.25,0],[0.5,0,0],[0.75,0.25,0],[1,0.5,0],[0.75,0.75,0],[0.5,1,0],[0.25,0.75,0],[0,0.5,0]];shape=mxgraph.bpmn.gateway2;html=1;verticalLabelPosition=bottom;labelBackgroundColor=#ffffff;verticalAlign=top;align=center;perimeter=rhombusPerimeter;outlineConnect=0;outline=none;symbol=none;gwType=exclusive;" vertex="1" parent="7GD1HpZ-PUaCYe6f2KZS-7">
          <mxGeometry x="135" y="102.5" width="50" height="50" as="geometry" />
        </mxCell>
        <mxCell id="7GD1HpZ-PUaCYe6f2KZS-60" value="¿Genera info. adicional?" style="text;html=1;align=center;verticalAlign=middle;resizable=0;points=[];autosize=1;strokeColor=none;fillColor=none;" vertex="1" parent="7GD1HpZ-PUaCYe6f2KZS-7">
          <mxGeometry x="20" y="152.5" width="150" height="30" as="geometry" />
        </mxCell>
        <mxCell id="7GD1HpZ-PUaCYe6f2KZS-61" value="" style="points=[[0.25,0.25,0],[0.5,0,0],[0.75,0.25,0],[1,0.5,0],[0.75,0.75,0],[0.5,1,0],[0.25,0.75,0],[0,0.5,0]];shape=mxgraph.bpmn.gateway2;html=1;verticalLabelPosition=bottom;labelBackgroundColor=#ffffff;verticalAlign=top;align=center;perimeter=rhombusPerimeter;outlineConnect=0;outline=none;symbol=none;gwType=exclusive;" vertex="1" parent="7GD1HpZ-PUaCYe6f2KZS-7">
          <mxGeometry x="390" y="102.5" width="50" height="50" as="geometry" />
        </mxCell>
        <mxCell id="7GD1HpZ-PUaCYe6f2KZS-69" style="edgeStyle=orthogonalEdgeStyle;rounded=0;orthogonalLoop=1;jettySize=auto;html=1;entryX=0;entryY=0.5;entryDx=0;entryDy=0;entryPerimeter=0;" edge="1" parent="7GD1HpZ-PUaCYe6f2KZS-7" source="7GD1HpZ-PUaCYe6f2KZS-65" target="7GD1HpZ-PUaCYe6f2KZS-61">
          <mxGeometry relative="1" as="geometry" />
        </mxCell>
        <mxCell id="7GD1HpZ-PUaCYe6f2KZS-65" value="" style="points=[[0.145,0.145,0],[0.5,0,0],[0.855,0.145,0],[1,0.5,0],[0.855,0.855,0],[0.5,1,0],[0.145,0.855,0],[0,0.5,0]];shape=mxgraph.bpmn.event;html=1;verticalLabelPosition=bottom;labelBackgroundColor=#ffffff;verticalAlign=top;align=center;perimeter=ellipsePerimeter;outlineConnect=0;aspect=fixed;outline=throwing;symbol=message;" vertex="1" parent="7GD1HpZ-PUaCYe6f2KZS-7">
          <mxGeometry x="270" y="60" width="25" height="25" as="geometry" />
        </mxCell>
        <mxCell id="7GD1HpZ-PUaCYe6f2KZS-71" value="Info. adicional" style="text;html=1;align=center;verticalAlign=middle;resizable=0;points=[];autosize=1;strokeColor=none;fillColor=none;" vertex="1" parent="7GD1HpZ-PUaCYe6f2KZS-7">
          <mxGeometry x="232.5" y="80" width="100" height="30" as="geometry" />
        </mxCell>
        <mxCell id="7GD1HpZ-PUaCYe6f2KZS-85" value="" style="dashed=1;dashPattern=8 4;endArrow=blockThin;endFill=1;startArrow=oval;startFill=0;endSize=6;startSize=4;html=1;rounded=0;entryX=0.5;entryY=0;entryDx=0;entryDy=0;entryPerimeter=0;" edge="1" parent="7GD1HpZ-PUaCYe6f2KZS-7" target="7GD1HpZ-PUaCYe6f2KZS-76">
          <mxGeometry width="160" relative="1" as="geometry">
            <mxPoint x="280" y="60" as="sourcePoint" />
            <mxPoint x="440" y="60" as="targetPoint" />
            <Array as="points">
              <mxPoint x="280" y="-180" />
              <mxPoint x="635" y="-180" />
            </Array>
          </mxGeometry>
        </mxCell>
        <mxCell id="7GD1HpZ-PUaCYe6f2KZS-74" value="No" style="text;html=1;align=center;verticalAlign=middle;resizable=0;points=[];autosize=1;strokeColor=none;fillColor=none;" vertex="1" parent="7GD1HpZ-PUaCYe6f2KZS-7">
          <mxGeometry x="200" y="122.5" width="40" height="30" as="geometry" />
        </mxCell>
        <mxCell id="7GD1HpZ-PUaCYe6f2KZS-8" value="Director de Seguridad de la Información" style="swimlane;startSize=20;horizontal=0;html=1;" vertex="1" parent="7GD1HpZ-PUaCYe6f2KZS-1">
          <mxGeometry y="860" width="990" height="250" as="geometry" />
        </mxCell>
        <mxCell id="7GD1HpZ-PUaCYe6f2KZS-17" value="" style="dashed=1;dashPattern=8 4;endArrow=blockThin;endFill=1;startArrow=oval;startFill=0;endSize=6;startSize=4;html=1;rounded=0;entryX=0.5;entryY=0;entryDx=0;entryDy=0;entryPerimeter=0;exitX=0.5;exitY=1;exitDx=0;exitDy=0;exitPerimeter=0;" edge="1" parent="7GD1HpZ-PUaCYe6f2KZS-1" source="7GD1HpZ-PUaCYe6f2KZS-12" target="7GD1HpZ-PUaCYe6f2KZS-15">
          <mxGeometry width="160" relative="1" as="geometry">
            <mxPoint x="270" y="142.5" as="sourcePoint" />
            <mxPoint x="430" y="142.5" as="targetPoint" />
            <Array as="points">
              <mxPoint x="273" y="180" />
              <mxPoint x="180" y="180" />
              <mxPoint x="60" y="180" />
            </Array>
          </mxGeometry>
        </mxCell>
        <mxCell id="7GD1HpZ-PUaCYe6f2KZS-43" value="" style="dashed=1;dashPattern=8 4;endArrow=blockThin;endFill=1;startArrow=oval;startFill=0;endSize=6;startSize=4;html=1;rounded=0;entryX=0.5;entryY=0;entryDx=0;entryDy=0;entryPerimeter=0;exitX=0.5;exitY=1;exitDx=0;exitDy=0;exitPerimeter=0;" edge="1" parent="7GD1HpZ-PUaCYe6f2KZS-1" source="7GD1HpZ-PUaCYe6f2KZS-40" target="7GD1HpZ-PUaCYe6f2KZS-37">
          <mxGeometry width="160" relative="1" as="geometry">
            <mxPoint x="543" y="370" as="sourcePoint" />
            <mxPoint x="330" y="537" as="targetPoint" />
            <Array as="points">
              <mxPoint x="545" y="407" />
              <mxPoint x="450" y="407" />
              <mxPoint x="60" y="407" />
            </Array>
          </mxGeometry>
        </mxCell>
        <mxCell id="7GD1HpZ-PUaCYe6f2KZS-49" value="No leve" style="text;html=1;align=center;verticalAlign=middle;resizable=0;points=[];autosize=1;strokeColor=none;fillColor=none;" vertex="1" parent="1">
          <mxGeometry x="520" y="485" width="60" height="30" as="geometry" />
        </mxCell>
        <mxCell id="7GD1HpZ-PUaCYe6f2KZS-72" value="Mensaje: no se produce info. adicional" style="text;html=1;align=center;verticalAlign=middle;resizable=0;points=[];autosize=1;strokeColor=none;fillColor=none;" vertex="1" parent="1">
          <mxGeometry x="225" y="945" width="230" height="30" as="geometry" />
        </mxCell>
        <mxCell id="7GD1HpZ-PUaCYe6f2KZS-73" value="Sí" style="text;html=1;align=center;verticalAlign=middle;resizable=0;points=[];autosize=1;strokeColor=none;fillColor=none;" vertex="1" parent="1">
          <mxGeometry x="245" y="835" width="30" height="30" as="geometry" />
        </mxCell>
      </root>
    </mxGraphModel>
  </diagram>
</mxfile>
